# xmcd
#
# Track frame offsets:
#	150
#	24148
#	40440
#	56273
#	73904
#	95571
#	112608
#	129267
#	146169
#	164887
#	178949
#	199464
#	213315
#
# Disc length: 3070 seconds
#
# Revision: 0
# Processed by: cddbd v1.5.2PL0 Copyright (c) Steve Scherf et al.
# Submitted via: SynApp - FreeCDDB Version: 2.4
#
DISCID=c10bfc0d
DTITLE=Celine Dion - Miracle
DYEAR=2006
DGENRE=Blues
TTITLE0=Celine Dion - In Some Small Way
TTITLE1=Celine Dion - Miracle
TTITLE2=Celine Dion - Brahms' Lullaby
TTITLE3=Celine Dion - If I Could
TTITLE4=Celine Dion - Sleep Tight
TTITLE5=Celine Dion - What a Wonderful World
TTITLE6=Celine Dion - My Precious One
TTITLE7=Celine Dion - A Mother's Prayer
TTITLE8=Celine Dion - The First Time Ever I Saw your
TTITLE9=Celine Dion - Baby Close your Eyes
TTITLE10=Celine Dion - Come to Me
TTITLE11=Celine Dion - Le Loup, La Biche Et Le Cheval
TTITLE12=Celine Dion - Beautiful Boy
EXTD=
EXTT0=
EXTT1=
EXTT2=
EXTT3=
EXTT4=
EXTT5=
EXTT6=
EXTT7=
EXTT8=
EXTT9=
EXTT10=
EXTT11=
EXTT12=
PLAYORDER=
